solid OpenSCAD_Model
  facet normal -1 0 0
    outer loop
      vertex -6 -6 70
      vertex -6 91 71
      vertex -6 91 70
    endloop
  endfacet
  facet normal -1 -0 0
    outer loop
      vertex -6 91 71
      vertex -6 -6 70
      vertex -6 -6 71
    endloop
  endfacet
  facet normal 0 0 1
    outer loop
      vertex 110 -1 71
      vertex 108.799 -2.75 71
      vertex 109 -3.5 71
    endloop
  endfacet
  facet normal 0 0 1
    outer loop
      vertex 110 -1 71
      vertex 108.25 -2.20096 71
      vertex 108.799 -2.75 71
    endloop
  endfacet
  facet normal 0 0 1
    outer loop
      vertex 110 -1 71
      vertex 107.5 -2 71
      vertex 108.25 -2.20096 71
    endloop
  endfacet
  facet normal 0 0 1
    outer loop
      vertex 110 -1 71
      vertex 106.75 -2.20096 71
      vertex 107.5 -2 71
    endloop
  endfacet
  facet normal 0 0 1
    outer loop
      vertex 106.201 -2.75 71
      vertex 56 -3.5 71
      vertex 106 -3.5 71
    endloop
  endfacet
  facet normal 0 0 1
    outer loop
      vertex 55.799 -2.75 71
      vertex 106.201 -2.75 71
      vertex 106.75 -2.20096 71
    endloop
  endfacet
  facet normal 0 0 1
    outer loop
      vertex 55.25 -2.20096 71
      vertex 106.75 -2.20096 71
      vertex 110 -1 71
    endloop
  endfacet
  facet normal 0 0 1
    outer loop
      vertex 106.201 -2.75 71
      vertex 55.799 -2.75 71
      vertex 56 -3.5 71
    endloop
  endfacet
  facet normal 0 0 1
    outer loop
      vertex 106.75 -2.20096 71
      vertex 55.25 -2.20096 71
      vertex 55.799 -2.75 71
    endloop
  endfacet
  facet normal 0 0 1
    outer loop
      vertex 110 -1 71
      vertex 54.5 -2 71
      vertex 55.25 -2.20096 71
    endloop
  endfacet
  facet normal 0 0 1
    outer loop
      vertex 53.201 -2.75 71
      vertex 3 -3.5 71
      vertex 53 -3.5 71
    endloop
  endfacet
  facet normal 0 0 1
    outer loop
      vertex 2.79904 -2.75 71
      vertex 53.201 -2.75 71
      vertex 53.75 -2.20096 71
    endloop
  endfacet
  facet normal 0 0 1
    outer loop
      vertex -1 -1 71
      vertex 53.75 -2.20096 71
      vertex 54.5 -2 71
    endloop
  endfacet
  facet normal 0 0 1
    outer loop
      vertex 53.201 -2.75 71
      vertex 2.79904 -2.75 71
      vertex 3 -3.5 71
    endloop
  endfacet
  facet normal -0 0 1
    outer loop
      vertex -1 -1 71
      vertex 54.5 -2 71
      vertex 110 -1 71
    endloop
  endfacet
  facet normal 0 0 1
    outer loop
      vertex 53.75 -2.20096 71
      vertex 2.25 -2.20096 71
      vertex 2.79904 -2.75 71
    endloop
  endfacet
  facet normal 0 0 1
    outer loop
      vertex 53.75 -2.20096 71
      vertex -1 -1 71
      vertex 2.25 -2.20096 71
    endloop
  endfacet
  facet normal 0 0 1
    outer loop
      vertex 0.200961 -2.75 71
      vertex -1 -1 71
      vertex 0 -3.5 71
    endloop
  endfacet
  facet normal 0 0 1
    outer loop
      vertex 0.75 -2.20096 71
      vertex -1 -1 71
      vertex 0.200961 -2.75 71
    endloop
  endfacet
  facet normal 0 0 1
    outer loop
      vertex 1.5 -2 71
      vertex -1 -1 71
      vertex 0.75 -2.20096 71
    endloop
  endfacet
  facet normal 0 0 1
    outer loop
      vertex 2.25 -2.20096 71
      vertex -1 -1 71
      vertex 1.5 -2 71
    endloop
  endfacet
  facet normal 0 0 1
    outer loop
      vertex 115 91 71
      vertex 110 86 71
      vertex 115 -6 71
    endloop
  endfacet
  facet normal 0 0 1
    outer loop
      vertex 115 91 71
      vertex 109 88.5 71
      vertex 110 86 71
    endloop
  endfacet
  facet normal 0 0 1
    outer loop
      vertex 115 91 71
      vertex 108.799 89.25 71
      vertex 109 88.5 71
    endloop
  endfacet
  facet normal 0 0 1
    outer loop
      vertex 115 91 71
      vertex 108.25 89.799 71
      vertex 108.799 89.25 71
    endloop
  endfacet
  facet normal 0 0 1
    outer loop
      vertex 115 91 71
      vertex 107.5 90 71
      vertex 108.25 89.799 71
    endloop
  endfacet
  facet normal 0 0 1
    outer loop
      vertex 106.201 89.25 71
      vertex 56 88.5 71
      vertex 106 88.5 71
    endloop
  endfacet
  facet normal 0 0 1
    outer loop
      vertex 55.799 89.25 71
      vertex 106.201 89.25 71
      vertex 106.75 89.799 71
    endloop
  endfacet
  facet normal 0 0 1
    outer loop
      vertex 55.25 89.799 71
      vertex 106.75 89.799 71
      vertex 107.5 90 71
    endloop
  endfacet
  facet normal 0 0 1
    outer loop
      vertex 54.5 90 71
      vertex 107.5 90 71
      vertex 115 91 71
    endloop
  endfacet
  facet normal 0 0 1
    outer loop
      vertex 106.201 89.25 71
      vertex 55.799 89.25 71
      vertex 56 88.5 71
    endloop
  endfacet
  facet normal 0 0 1
    outer loop
      vertex 106.75 89.799 71
      vertex 55.25 89.799 71
      vertex 55.799 89.25 71
    endloop
  endfacet
  facet normal 0 0 1
    outer loop
      vertex 107.5 90 71
      vertex 54.5 90 71
      vertex 55.25 89.799 71
    endloop
  endfacet
  facet normal 0 0 1
    outer loop
      vertex 53.201 89.25 71
      vertex 3 88.5 71
      vertex 53 88.5 71
    endloop
  endfacet
  facet normal 0 0 1
    outer loop
      vertex 2.79904 89.25 71
      vertex 53.201 89.25 71
      vertex 53.75 89.799 71
    endloop
  endfacet
  facet normal 0 0 1
    outer loop
      vertex 2.25 89.799 71
      vertex 53.75 89.799 71
      vertex 54.5 90 71
    endloop
  endfacet
  facet normal 0 0 1
    outer loop
      vertex 53.201 89.25 71
      vertex 2.79904 89.25 71
      vertex 3 88.5 71
    endloop
  endfacet
  facet normal -0 0 1
    outer loop
      vertex -6 91 71
      vertex 54.5 90 71
      vertex 115 91 71
    endloop
  endfacet
  facet normal 0 0 1
    outer loop
      vertex 53.75 89.799 71
      vertex 2.25 89.799 71
      vertex 2.79904 89.25 71
    endloop
  endfacet
  facet normal 0 0 1
    outer loop
      vertex 54.5 90 71
      vertex 1.5 90 71
      vertex 2.25 89.799 71
    endloop
  endfacet
  facet normal 0 0 1
    outer loop
      vertex -6 91 71
      vertex 0 88.5 71
      vertex 0.200961 89.25 71
    endloop
  endfacet
  facet normal 0 0 1
    outer loop
      vertex -1 86 71
      vertex -6 91 71
      vertex -1 -1 71
    endloop
  endfacet
  facet normal 0 0 1
    outer loop
      vertex 0 88.5 71
      vertex -6 91 71
      vertex -1 86 71
    endloop
  endfacet
  facet normal 0 0 1
    outer loop
      vertex 0.75 89.799 71
      vertex -6 91 71
      vertex 0.200961 89.25 71
    endloop
  endfacet
  facet normal 0 0 1
    outer loop
      vertex 1.5 90 71
      vertex -6 91 71
      vertex 0.75 89.799 71
    endloop
  endfacet
  facet normal 0 0 1
    outer loop
      vertex 54.5 90 71
      vertex -6 91 71
      vertex 1.5 90 71
    endloop
  endfacet
  facet normal -0 0 1
    outer loop
      vertex 110 -1 71
      vertex 115 -6 71
      vertex 110 86 71
    endloop
  endfacet
  facet normal -0 0 1
    outer loop
      vertex 109 -3.5 71
      vertex 115 -6 71
      vertex 110 -1 71
    endloop
  endfacet
  facet normal -0 0 1
    outer loop
      vertex 108.799 -4.25 71
      vertex 115 -6 71
      vertex 109 -3.5 71
    endloop
  endfacet
  facet normal -0 0 1
    outer loop
      vertex 108.25 -4.79904 71
      vertex 115 -6 71
      vertex 108.799 -4.25 71
    endloop
  endfacet
  facet normal -0 0 1
    outer loop
      vertex 107.5 -5 71
      vertex 115 -6 71
      vertex 108.25 -4.79904 71
    endloop
  endfacet
  facet normal -0 0 1
    outer loop
      vertex 56 -3.5 71
      vertex 106.201 -4.25 71
      vertex 106 -3.5 71
    endloop
  endfacet
  facet normal 0 0 1
    outer loop
      vertex 55.799 -4.25 71
      vertex 106.201 -4.25 71
      vertex 56 -3.5 71
    endloop
  endfacet
  facet normal 0 0 1
    outer loop
      vertex 106.201 -4.25 71
      vertex 55.799 -4.25 71
      vertex 106.75 -4.79904 71
    endloop
  endfacet
  facet normal 0 0 1
    outer loop
      vertex 55.25 -4.79904 71
      vertex 106.75 -4.79904 71
      vertex 55.799 -4.25 71
    endloop
  endfacet
  facet normal 0 0 1
    outer loop
      vertex 106.75 -4.79904 71
      vertex 55.25 -4.79904 71
      vertex 107.5 -5 71
    endloop
  endfacet
  facet normal 0 0 1
    outer loop
      vertex 54.5 -5 71
      vertex 107.5 -5 71
      vertex 55.25 -4.79904 71
    endloop
  endfacet
  facet normal 0 0 1
    outer loop
      vertex 107.5 -5 71
      vertex 54.5 -5 71
      vertex 115 -6 71
    endloop
  endfacet
  facet normal -0 0 1
    outer loop
      vertex 3 -3.5 71
      vertex 53.201 -4.25 71
      vertex 53 -3.5 71
    endloop
  endfacet
  facet normal 0 0 1
    outer loop
      vertex 2.79904 -4.25 71
      vertex 53.201 -4.25 71
      vertex 3 -3.5 71
    endloop
  endfacet
  facet normal 0 0 1
    outer loop
      vertex 53.201 -4.25 71
      vertex 2.79904 -4.25 71
      vertex 53.75 -4.79904 71
    endloop
  endfacet
  facet normal 0 0 1
    outer loop
      vertex 2.25 -4.79904 71
      vertex 53.75 -4.79904 71
      vertex 2.79904 -4.25 71
    endloop
  endfacet
  facet normal 0 0 1
    outer loop
      vertex 53.75 -4.79904 71
      vertex 2.25 -4.79904 71
      vertex 54.5 -5 71
    endloop
  endfacet
  facet normal 0 0 1
    outer loop
      vertex 1.5 -5 71
      vertex 54.5 -5 71
      vertex 2.25 -4.79904 71
    endloop
  endfacet
  facet normal 0 0 1
    outer loop
      vertex -6 -6 71
      vertex 54.5 -5 71
      vertex 1.5 -5 71
    endloop
  endfacet
  facet normal 0 0 1
    outer loop
      vertex -6 -6 71
      vertex 0 -3.5 71
      vertex -1 -1 71
    endloop
  endfacet
  facet normal 0 0 1
    outer loop
      vertex 54.5 -5 71
      vertex -6 -6 71
      vertex 115 -6 71
    endloop
  endfacet
  facet normal 0 0 1
    outer loop
      vertex 0.749999 -4.79904 71
      vertex -6 -6 71
      vertex 1.5 -5 71
    endloop
  endfacet
  facet normal 0 0 1
    outer loop
      vertex 0.200961 -4.25 71
      vertex -6 -6 71
      vertex 0.749999 -4.79904 71
    endloop
  endfacet
  facet normal 0 0 1
    outer loop
      vertex 0 -3.5 71
      vertex -6 -6 71
      vertex 0.200961 -4.25 71
    endloop
  endfacet
  facet normal 0 0 1
    outer loop
      vertex -6 -6 71
      vertex -1 -1 71
      vertex -6 91 71
    endloop
  endfacet
  facet normal -0 0 1
    outer loop
      vertex 108.799 87.75 71
      vertex 110 86 71
      vertex 109 88.5 71
    endloop
  endfacet
  facet normal -0 0 1
    outer loop
      vertex 108.25 87.201 71
      vertex 110 86 71
      vertex 108.799 87.75 71
    endloop
  endfacet
  facet normal -0 0 1
    outer loop
      vertex 107.5 87 71
      vertex 110 86 71
      vertex 108.25 87.201 71
    endloop
  endfacet
  facet normal 0 0 1
    outer loop
      vertex 106.75 87.201 71
      vertex 110 86 71
      vertex 107.5 87 71
    endloop
  endfacet
  facet normal -0 0 1
    outer loop
      vertex 56 88.5 71
      vertex 106.201 87.75 71
      vertex 106 88.5 71
    endloop
  endfacet
  facet normal 0 0 1
    outer loop
      vertex 55.799 87.75 71
      vertex 106.201 87.75 71
      vertex 56 88.5 71
    endloop
  endfacet
  facet normal 0 0 1
    outer loop
      vertex 106.201 87.75 71
      vertex 55.799 87.75 71
      vertex 106.75 87.201 71
    endloop
  endfacet
  facet normal 0 0 1
    outer loop
      vertex 55.25 87.201 71
      vertex 106.75 87.201 71
      vertex 55.799 87.75 71
    endloop
  endfacet
  facet normal 0 0 1
    outer loop
      vertex 106.75 87.201 71
      vertex 55.25 87.201 71
      vertex 110 86 71
    endloop
  endfacet
  facet normal -0 0 1
    outer loop
      vertex 54.5 87 71
      vertex 110 86 71
      vertex 55.25 87.201 71
    endloop
  endfacet
  facet normal -0 0 1
    outer loop
      vertex 3 88.5 71
      vertex 53.201 87.75 71
      vertex 53 88.5 71
    endloop
  endfacet
  facet normal 0 0 1
    outer loop
      vertex 2.79904 87.75 71
      vertex 53.201 87.75 71
      vertex 3 88.5 71
    endloop
  endfacet
  facet normal 0 0 1
    outer loop
      vertex 53.201 87.75 71
      vertex 2.79904 87.75 71
      vertex 53.75 87.201 71
    endloop
  endfacet
  facet normal 0 0 1
    outer loop
      vertex 2.25 87.201 71
      vertex 53.75 87.201 71
      vertex 2.79904 87.75 71
    endloop
  endfacet
  facet normal 0 0 1
    outer loop
      vertex -1 86 71
      vertex 53.75 87.201 71
      vertex 2.25 87.201 71
    endloop
  endfacet
  facet normal 0 0 1
    outer loop
      vertex 53.75 87.201 71
      vertex -1 86 71
      vertex 54.5 87 71
    endloop
  endfacet
  facet normal 0 0 1
    outer loop
      vertex -1 86 71
      vertex 2.25 87.201 71
      vertex 1.5 87 71
    endloop
  endfacet
  facet normal 0 0 1
    outer loop
      vertex 54.5 87 71
      vertex -1 86 71
      vertex 110 86 71
    endloop
  endfacet
  facet normal 0 0 1
    outer loop
      vertex 0.749999 87.201 71
      vertex -1 86 71
      vertex 1.5 87 71
    endloop
  endfacet
  facet normal 0 0 1
    outer loop
      vertex 0.200961 87.75 71
      vertex -1 86 71
      vertex 0.749999 87.201 71
    endloop
  endfacet
  facet normal 0 0 1
    outer loop
      vertex -1 86 71
      vertex 0.200961 87.75 71
      vertex 0 88.5 71
    endloop
  endfacet
  facet normal 1 -0 0
    outer loop
      vertex -1 -1 71
      vertex -1 86 70
      vertex -1 86 71
    endloop
  endfacet
  facet normal 1 0 0
    outer loop
      vertex -1 86 70
      vertex -1 -1 71
      vertex -1 -1 70
    endloop
  endfacet
  facet normal 0 0 -1
    outer loop
      vertex 110 86 70
      vertex 108.799 87.75 70
      vertex 109 88.5 70
    endloop
  endfacet
  facet normal 0 0 -1
    outer loop
      vertex 110 86 70
      vertex 108.25 87.201 70
      vertex 108.799 87.75 70
    endloop
  endfacet
  facet normal 0 0 -1
    outer loop
      vertex 110 86 70
      vertex 107.5 87 70
      vertex 108.25 87.201 70
    endloop
  endfacet
  facet normal 0 0 -1
    outer loop
      vertex 110 86 70
      vertex 106.75 87.201 70
      vertex 107.5 87 70
    endloop
  endfacet
  facet normal 0 0 -1
    outer loop
      vertex 106.201 87.75 70
      vertex 56 88.5 70
      vertex 106 88.5 70
    endloop
  endfacet
  facet normal 0 0 -1
    outer loop
      vertex 55.799 87.75 70
      vertex 106.201 87.75 70
      vertex 106.75 87.201 70
    endloop
  endfacet
  facet normal 0 0 -1
    outer loop
      vertex 55.25 87.201 70
      vertex 106.75 87.201 70
      vertex 110 86 70
    endloop
  endfacet
  facet normal 0 0 -1
    outer loop
      vertex 106.201 87.75 70
      vertex 55.799 87.75 70
      vertex 56 88.5 70
    endloop
  endfacet
  facet normal 0 0 -1
    outer loop
      vertex 106.75 87.201 70
      vertex 55.25 87.201 70
      vertex 55.799 87.75 70
    endloop
  endfacet
  facet normal 0 0 -1
    outer loop
      vertex 110 86 70
      vertex 54.5 87 70
      vertex 55.25 87.201 70
    endloop
  endfacet
  facet normal 0 0 -1
    outer loop
      vertex 53.201 87.75 70
      vertex 3 88.5 70
      vertex 53 88.5 70
    endloop
  endfacet
  facet normal 0 0 -1
    outer loop
      vertex 2.79904 87.75 70
      vertex 53.201 87.75 70
      vertex 53.75 87.201 70
    endloop
  endfacet
  facet normal 0 0 -1
    outer loop
      vertex -1 86 70
      vertex 53.75 87.201 70
      vertex 54.5 87 70
    endloop
  endfacet
  facet normal 0 0 -1
    outer loop
      vertex 53.201 87.75 70
      vertex 2.79904 87.75 70
      vertex 3 88.5 70
    endloop
  endfacet
  facet normal 0 0 -1
    outer loop
      vertex -1 86 70
      vertex 54.5 87 70
      vertex 110 86 70
    endloop
  endfacet
  facet normal 0 0 -1
    outer loop
      vertex 53.75 87.201 70
      vertex 2.25 87.201 70
      vertex 2.79904 87.75 70
    endloop
  endfacet
  facet normal -0 0 -1
    outer loop
      vertex 53.75 87.201 70
      vertex -1 86 70
      vertex 2.25 87.201 70
    endloop
  endfacet
  facet normal -0 0 -1
    outer loop
      vertex 0.200961 87.75 70
      vertex -1 86 70
      vertex 0 88.5 70
    endloop
  endfacet
  facet normal -0 0 -1
    outer loop
      vertex 0.749999 87.201 70
      vertex -1 86 70
      vertex 0.200961 87.75 70
    endloop
  endfacet
  facet normal -0 0 -1
    outer loop
      vertex 1.5 87 70
      vertex -1 86 70
      vertex 0.749999 87.201 70
    endloop
  endfacet
  facet normal 0 0 -1
    outer loop
      vertex 2.25 87.201 70
      vertex -1 86 70
      vertex 1.5 87 70
    endloop
  endfacet
  facet normal 0 0 -1
    outer loop
      vertex 115 -6 70
      vertex 110 -1 70
      vertex 115 91 70
    endloop
  endfacet
  facet normal 0 0 -1
    outer loop
      vertex 115 -6 70
      vertex 109 -3.5 70
      vertex 110 -1 70
    endloop
  endfacet
  facet normal 0 0 -1
    outer loop
      vertex 115 -6 70
      vertex 108.799 -4.25 70
      vertex 109 -3.5 70
    endloop
  endfacet
  facet normal 0 0 -1
    outer loop
      vertex 115 -6 70
      vertex 108.25 -4.79904 70
      vertex 108.799 -4.25 70
    endloop
  endfacet
  facet normal 0 0 -1
    outer loop
      vertex 115 -6 70
      vertex 107.5 -5 70
      vertex 108.25 -4.79904 70
    endloop
  endfacet
  facet normal 0 0 -1
    outer loop
      vertex 106.201 -4.25 70
      vertex 56 -3.5 70
      vertex 106 -3.5 70
    endloop
  endfacet
  facet normal 0 0 -1
    outer loop
      vertex 55.799 -4.25 70
      vertex 106.201 -4.25 70
      vertex 106.75 -4.79904 70
    endloop
  endfacet
  facet normal 0 0 -1
    outer loop
      vertex 55.25 -4.79904 70
      vertex 106.75 -4.79904 70
      vertex 107.5 -5 70
    endloop
  endfacet
  facet normal 0 0 -1
    outer loop
      vertex 54.5 -5 70
      vertex 107.5 -5 70
      vertex 115 -6 70
    endloop
  endfacet
  facet normal 0 0 -1
    outer loop
      vertex 106.201 -4.25 70
      vertex 55.799 -4.25 70
      vertex 56 -3.5 70
    endloop
  endfacet
  facet normal 0 0 -1
    outer loop
      vertex 106.75 -4.79904 70
      vertex 55.25 -4.79904 70
      vertex 55.799 -4.25 70
    endloop
  endfacet
  facet normal 0 0 -1
    outer loop
      vertex 107.5 -5 70
      vertex 54.5 -5 70
      vertex 55.25 -4.79904 70
    endloop
  endfacet
  facet normal 0 0 -1
    outer loop
      vertex 53.201 -4.25 70
      vertex 3 -3.5 70
      vertex 53 -3.5 70
    endloop
  endfacet
  facet normal 0 0 -1
    outer loop
      vertex 2.79904 -4.25 70
      vertex 53.201 -4.25 70
      vertex 53.75 -4.79904 70
    endloop
  endfacet
  facet normal 0 0 -1
    outer loop
      vertex 2.25 -4.79904 70
      vertex 53.75 -4.79904 70
      vertex 54.5 -5 70
    endloop
  endfacet
  facet normal 0 0 -1
    outer loop
      vertex 53.201 -4.25 70
      vertex 2.79904 -4.25 70
      vertex 3 -3.5 70
    endloop
  endfacet
  facet normal 0 0 -1
    outer loop
      vertex -6 -6 70
      vertex 54.5 -5 70
      vertex 115 -6 70
    endloop
  endfacet
  facet normal 0 0 -1
    outer loop
      vertex 53.75 -4.79904 70
      vertex 2.25 -4.79904 70
      vertex 2.79904 -4.25 70
    endloop
  endfacet
  facet normal 0 0 -1
    outer loop
      vertex 54.5 -5 70
      vertex 1.5 -5 70
      vertex 2.25 -4.79904 70
    endloop
  endfacet
  facet normal 0 0 -1
    outer loop
      vertex -6 -6 70
      vertex 0 -3.5 70
      vertex 0.200961 -4.25 70
    endloop
  endfacet
  facet normal -0 0 -1
    outer loop
      vertex -1 -1 70
      vertex -6 -6 70
      vertex -1 86 70
    endloop
  endfacet
  facet normal -0 0 -1
    outer loop
      vertex 0 -3.5 70
      vertex -6 -6 70
      vertex -1 -1 70
    endloop
  endfacet
  facet normal -0 0 -1
    outer loop
      vertex 0.749999 -4.79904 70
      vertex -6 -6 70
      vertex 0.200961 -4.25 70
    endloop
  endfacet
  facet normal -0 0 -1
    outer loop
      vertex 1.5 -5 70
      vertex -6 -6 70
      vertex 0.749999 -4.79904 70
    endloop
  endfacet
  facet normal -0 0 -1
    outer loop
      vertex 54.5 -5 70
      vertex -6 -6 70
      vertex 1.5 -5 70
    endloop
  endfacet
  facet normal 0 0 -1
    outer loop
      vertex 110 86 70
      vertex 115 91 70
      vertex 110 -1 70
    endloop
  endfacet
  facet normal 0 0 -1
    outer loop
      vertex 109 88.5 70
      vertex 115 91 70
      vertex 110 86 70
    endloop
  endfacet
  facet normal 0 0 -1
    outer loop
      vertex 108.799 89.25 70
      vertex 115 91 70
      vertex 109 88.5 70
    endloop
  endfacet
  facet normal 0 0 -1
    outer loop
      vertex 108.25 89.799 70
      vertex 115 91 70
      vertex 108.799 89.25 70
    endloop
  endfacet
  facet normal 0 0 -1
    outer loop
      vertex 107.5 90 70
      vertex 115 91 70
      vertex 108.25 89.799 70
    endloop
  endfacet
  facet normal 0 0 -1
    outer loop
      vertex 56 88.5 70
      vertex 106.201 89.25 70
      vertex 106 88.5 70
    endloop
  endfacet
  facet normal 0 0 -1
    outer loop
      vertex 55.799 89.25 70
      vertex 106.201 89.25 70
      vertex 56 88.5 70
    endloop
  endfacet
  facet normal 0 0 -1
    outer loop
      vertex 106.201 89.25 70
      vertex 55.799 89.25 70
      vertex 106.75 89.799 70
    endloop
  endfacet
  facet normal 0 0 -1
    outer loop
      vertex 55.25 89.799 70
      vertex 106.75 89.799 70
      vertex 55.799 89.25 70
    endloop
  endfacet
  facet normal 0 0 -1
    outer loop
      vertex 106.75 89.799 70
      vertex 55.25 89.799 70
      vertex 107.5 90 70
    endloop
  endfacet
  facet normal 0 0 -1
    outer loop
      vertex 54.5 90 70
      vertex 107.5 90 70
      vertex 55.25 89.799 70
    endloop
  endfacet
  facet normal 0 0 -1
    outer loop
      vertex 107.5 90 70
      vertex 54.5 90 70
      vertex 115 91 70
    endloop
  endfacet
  facet normal 0 0 -1
    outer loop
      vertex 3 88.5 70
      vertex 53.201 89.25 70
      vertex 53 88.5 70
    endloop
  endfacet
  facet normal 0 0 -1
    outer loop
      vertex 2.79904 89.25 70
      vertex 53.201 89.25 70
      vertex 3 88.5 70
    endloop
  endfacet
  facet normal 0 0 -1
    outer loop
      vertex 53.201 89.25 70
      vertex 2.79904 89.25 70
      vertex 53.75 89.799 70
    endloop
  endfacet
  facet normal 0 0 -1
    outer loop
      vertex 2.25 89.799 70
      vertex 53.75 89.799 70
      vertex 2.79904 89.25 70
    endloop
  endfacet
  facet normal 0 0 -1
    outer loop
      vertex 53.75 89.799 70
      vertex 2.25 89.799 70
      vertex 54.5 90 70
    endloop
  endfacet
  facet normal 0 0 -1
    outer loop
      vertex 1.5 90 70
      vertex 54.5 90 70
      vertex 2.25 89.799 70
    endloop
  endfacet
  facet normal 0 0 -1
    outer loop
      vertex -6 91 70
      vertex 54.5 90 70
      vertex 1.5 90 70
    endloop
  endfacet
  facet normal 0 0 -1
    outer loop
      vertex -6 91 70
      vertex 0 88.5 70
      vertex -1 86 70
    endloop
  endfacet
  facet normal 0 0 -1
    outer loop
      vertex 54.5 90 70
      vertex -6 91 70
      vertex 115 91 70
    endloop
  endfacet
  facet normal 0 0 -1
    outer loop
      vertex 0.75 89.799 70
      vertex -6 91 70
      vertex 1.5 90 70
    endloop
  endfacet
  facet normal 0 0 -1
    outer loop
      vertex 0.200961 89.25 70
      vertex -6 91 70
      vertex 0.75 89.799 70
    endloop
  endfacet
  facet normal 0 0 -1
    outer loop
      vertex 0 88.5 70
      vertex -6 91 70
      vertex 0.200961 89.25 70
    endloop
  endfacet
  facet normal 0 0 -1
    outer loop
      vertex -6 91 70
      vertex -1 86 70
      vertex -6 -6 70
    endloop
  endfacet
  facet normal 0 0 -1
    outer loop
      vertex 108.799 -2.75 70
      vertex 110 -1 70
      vertex 109 -3.5 70
    endloop
  endfacet
  facet normal 0 0 -1
    outer loop
      vertex 108.25 -2.20096 70
      vertex 110 -1 70
      vertex 108.799 -2.75 70
    endloop
  endfacet
  facet normal 0 0 -1
    outer loop
      vertex 107.5 -2 70
      vertex 110 -1 70
      vertex 108.25 -2.20096 70
    endloop
  endfacet
  facet normal 0 0 -1
    outer loop
      vertex 106.75 -2.20096 70
      vertex 110 -1 70
      vertex 107.5 -2 70
    endloop
  endfacet
  facet normal 0 0 -1
    outer loop
      vertex 56 -3.5 70
      vertex 106.201 -2.75 70
      vertex 106 -3.5 70
    endloop
  endfacet
  facet normal 0 0 -1
    outer loop
      vertex 55.799 -2.75 70
      vertex 106.201 -2.75 70
      vertex 56 -3.5 70
    endloop
  endfacet
  facet normal 0 0 -1
    outer loop
      vertex 106.201 -2.75 70
      vertex 55.799 -2.75 70
      vertex 106.75 -2.20096 70
    endloop
  endfacet
  facet normal 0 0 -1
    outer loop
      vertex 55.25 -2.20096 70
      vertex 106.75 -2.20096 70
      vertex 55.799 -2.75 70
    endloop
  endfacet
  facet normal 0 0 -1
    outer loop
      vertex 106.75 -2.20096 70
      vertex 55.25 -2.20096 70
      vertex 110 -1 70
    endloop
  endfacet
  facet normal 0 0 -1
    outer loop
      vertex 54.5 -2 70
      vertex 110 -1 70
      vertex 55.25 -2.20096 70
    endloop
  endfacet
  facet normal 0 0 -1
    outer loop
      vertex 3 -3.5 70
      vertex 53.201 -2.75 70
      vertex 53 -3.5 70
    endloop
  endfacet
  facet normal 0 0 -1
    outer loop
      vertex 2.79904 -2.75 70
      vertex 53.201 -2.75 70
      vertex 3 -3.5 70
    endloop
  endfacet
  facet normal 0 0 -1
    outer loop
      vertex 53.201 -2.75 70
      vertex 2.79904 -2.75 70
      vertex 53.75 -2.20096 70
    endloop
  endfacet
  facet normal 0 0 -1
    outer loop
      vertex 2.25 -2.20096 70
      vertex 53.75 -2.20096 70
      vertex 2.79904 -2.75 70
    endloop
  endfacet
  facet normal 0 0 -1
    outer loop
      vertex -1 -1 70
      vertex 53.75 -2.20096 70
      vertex 2.25 -2.20096 70
    endloop
  endfacet
  facet normal 0 0 -1
    outer loop
      vertex 53.75 -2.20096 70
      vertex -1 -1 70
      vertex 54.5 -2 70
    endloop
  endfacet
  facet normal 0 0 -1
    outer loop
      vertex -1 -1 70
      vertex 2.25 -2.20096 70
      vertex 1.5 -2 70
    endloop
  endfacet
  facet normal 0 0 -1
    outer loop
      vertex 54.5 -2 70
      vertex -1 -1 70
      vertex 110 -1 70
    endloop
  endfacet
  facet normal 0 0 -1
    outer loop
      vertex 0.75 -2.20096 70
      vertex -1 -1 70
      vertex 1.5 -2 70
    endloop
  endfacet
  facet normal 0 0 -1
    outer loop
      vertex 0.200961 -2.75 70
      vertex -1 -1 70
      vertex 0.75 -2.20096 70
    endloop
  endfacet
  facet normal 0 0 -1
    outer loop
      vertex -1 -1 70
      vertex 0.200961 -2.75 70
      vertex 0 -3.5 70
    endloop
  endfacet
  facet normal 0 -1 0
    outer loop
      vertex -6 -6 70
      vertex 115 -6 71
      vertex -6 -6 71
    endloop
  endfacet
  facet normal 0 -1 -0
    outer loop
      vertex 115 -6 71
      vertex -6 -6 70
      vertex 115 -6 70
    endloop
  endfacet
  facet normal 0 1 -0
    outer loop
      vertex 115 91 70
      vertex -6 91 71
      vertex 115 91 71
    endloop
  endfacet
  facet normal 0 1 0
    outer loop
      vertex -6 91 71
      vertex 115 91 70
      vertex -6 91 70
    endloop
  endfacet
  facet normal 1 -0 0
    outer loop
      vertex 115 -6 71
      vertex 115 91 70
      vertex 115 91 71
    endloop
  endfacet
  facet normal 1 0 0
    outer loop
      vertex 115 91 70
      vertex 115 -6 71
      vertex 115 -6 70
    endloop
  endfacet
  facet normal 0 1 -0
    outer loop
      vertex 110 -1 70
      vertex -1 -1 71
      vertex 110 -1 71
    endloop
  endfacet
  facet normal 0 1 0
    outer loop
      vertex -1 -1 71
      vertex 110 -1 70
      vertex -1 -1 70
    endloop
  endfacet
  facet normal -1 0 0
    outer loop
      vertex 110 -1 70
      vertex 110 86 71
      vertex 110 86 70
    endloop
  endfacet
  facet normal -1 -0 0
    outer loop
      vertex 110 86 71
      vertex 110 -1 70
      vertex 110 -1 71
    endloop
  endfacet
  facet normal 0 -1 0
    outer loop
      vertex -1 86 70
      vertex 110 86 71
      vertex -1 86 71
    endloop
  endfacet
  facet normal 0 -1 -0
    outer loop
      vertex 110 86 71
      vertex -1 86 70
      vertex 110 86 70
    endloop
  endfacet
  facet normal -0.965926 -0.258819 0
    outer loop
      vertex 3 -3.5 70
      vertex 2.79904 -2.75 71
      vertex 2.79904 -2.75 70
    endloop
  endfacet
  facet normal -0.965926 -0.258819 0
    outer loop
      vertex 2.79904 -2.75 71
      vertex 3 -3.5 70
      vertex 3 -3.5 71
    endloop
  endfacet
  facet normal 0.258818 -0.965926 0
    outer loop
      vertex 0.75 -2.20096 70
      vertex 1.5 -2 71
      vertex 0.75 -2.20096 71
    endloop
  endfacet
  facet normal 0.258818 -0.965926 0
    outer loop
      vertex 1.5 -2 71
      vertex 0.75 -2.20096 70
      vertex 1.5 -2 70
    endloop
  endfacet
  facet normal -0.707107 -0.707106 0
    outer loop
      vertex 2.79904 -2.75 70
      vertex 2.25 -2.20096 71
      vertex 2.25 -2.20096 70
    endloop
  endfacet
  facet normal -0.707107 -0.707106 0
    outer loop
      vertex 2.25 -2.20096 71
      vertex 2.79904 -2.75 70
      vertex 2.79904 -2.75 71
    endloop
  endfacet
  facet normal 0.965926 0.258818 0
    outer loop
      vertex 0.200961 -4.25 71
      vertex 0 -3.5 70
      vertex 0 -3.5 71
    endloop
  endfacet
  facet normal 0.965926 0.258818 0
    outer loop
      vertex 0 -3.5 70
      vertex 0.200961 -4.25 71
      vertex 0.200961 -4.25 70
    endloop
  endfacet
  facet normal 0.707107 -0.707107 0
    outer loop
      vertex 0.200961 -2.75 71
      vertex 0.75 -2.20096 70
      vertex 0.75 -2.20096 71
    endloop
  endfacet
  facet normal 0.707107 -0.707107 0
    outer loop
      vertex 0.75 -2.20096 70
      vertex 0.200961 -2.75 71
      vertex 0.200961 -2.75 70
    endloop
  endfacet
  facet normal -0.965926 0.258819 0
    outer loop
      vertex 2.79904 -4.25 70
      vertex 3 -3.5 71
      vertex 3 -3.5 70
    endloop
  endfacet
  facet normal -0.965926 0.258819 0
    outer loop
      vertex 3 -3.5 71
      vertex 2.79904 -4.25 70
      vertex 2.79904 -4.25 71
    endloop
  endfacet
  facet normal -0.707107 0.707107 0
    outer loop
      vertex 2.25 -4.79904 70
      vertex 2.79904 -4.25 71
      vertex 2.79904 -4.25 70
    endloop
  endfacet
  facet normal -0.707107 0.707107 0
    outer loop
      vertex 2.79904 -4.25 71
      vertex 2.25 -4.79904 70
      vertex 2.25 -4.79904 71
    endloop
  endfacet
  facet normal 0.707107 0.707107 0
    outer loop
      vertex 0.749999 -4.79904 71
      vertex 0.200961 -4.25 70
      vertex 0.200961 -4.25 71
    endloop
  endfacet
  facet normal 0.707107 0.707107 0
    outer loop
      vertex 0.200961 -4.25 70
      vertex 0.749999 -4.79904 71
      vertex 0.749999 -4.79904 70
    endloop
  endfacet
  facet normal -0.258818 -0.965926 0
    outer loop
      vertex 1.5 -2 70
      vertex 2.25 -2.20096 71
      vertex 1.5 -2 71
    endloop
  endfacet
  facet normal -0.258818 -0.965926 -0
    outer loop
      vertex 2.25 -2.20096 71
      vertex 1.5 -2 70
      vertex 2.25 -2.20096 70
    endloop
  endfacet
  facet normal -0.258819 0.965926 0
    outer loop
      vertex 2.25 -4.79904 70
      vertex 1.5 -5 71
      vertex 2.25 -4.79904 71
    endloop
  endfacet
  facet normal -0.258819 0.965926 0
    outer loop
      vertex 1.5 -5 71
      vertex 2.25 -4.79904 70
      vertex 1.5 -5 70
    endloop
  endfacet
  facet normal 0.965926 -0.258818 0
    outer loop
      vertex 0 -3.5 71
      vertex 0.200961 -2.75 70
      vertex 0.200961 -2.75 71
    endloop
  endfacet
  facet normal 0.965926 -0.258818 0
    outer loop
      vertex 0.200961 -2.75 70
      vertex 0 -3.5 71
      vertex 0 -3.5 70
    endloop
  endfacet
  facet normal 0.258819 0.965926 -0
    outer loop
      vertex 1.5 -5 70
      vertex 0.749999 -4.79904 71
      vertex 1.5 -5 71
    endloop
  endfacet
  facet normal 0.258819 0.965926 0
    outer loop
      vertex 0.749999 -4.79904 71
      vertex 1.5 -5 70
      vertex 0.749999 -4.79904 70
    endloop
  endfacet
  facet normal -0.965926 -0.258819 0
    outer loop
      vertex 56 -3.5 70
      vertex 55.799 -2.75 71
      vertex 55.799 -2.75 70
    endloop
  endfacet
  facet normal -0.965926 -0.258819 0
    outer loop
      vertex 55.799 -2.75 71
      vertex 56 -3.5 70
      vertex 56 -3.5 71
    endloop
  endfacet
  facet normal 0.258818 -0.965926 0
    outer loop
      vertex 53.75 -2.20096 70
      vertex 54.5 -2 71
      vertex 53.75 -2.20096 71
    endloop
  endfacet
  facet normal 0.258818 -0.965926 0
    outer loop
      vertex 54.5 -2 71
      vertex 53.75 -2.20096 70
      vertex 54.5 -2 70
    endloop
  endfacet
  facet normal -0.707107 -0.707106 0
    outer loop
      vertex 55.799 -2.75 70
      vertex 55.25 -2.20096 71
      vertex 55.25 -2.20096 70
    endloop
  endfacet
  facet normal -0.707107 -0.707106 0
    outer loop
      vertex 55.25 -2.20096 71
      vertex 55.799 -2.75 70
      vertex 55.799 -2.75 71
    endloop
  endfacet
  facet normal 0.965926 0.258819 0
    outer loop
      vertex 53.201 -4.25 71
      vertex 53 -3.5 70
      vertex 53 -3.5 71
    endloop
  endfacet
  facet normal 0.965926 0.258819 0
    outer loop
      vertex 53 -3.5 70
      vertex 53.201 -4.25 71
      vertex 53.201 -4.25 70
    endloop
  endfacet
  facet normal 0.707107 -0.707106 0
    outer loop
      vertex 53.201 -2.75 71
      vertex 53.75 -2.20096 70
      vertex 53.75 -2.20096 71
    endloop
  endfacet
  facet normal 0.707107 -0.707106 0
    outer loop
      vertex 53.75 -2.20096 70
      vertex 53.201 -2.75 71
      vertex 53.201 -2.75 70
    endloop
  endfacet
  facet normal -0.965926 0.258819 0
    outer loop
      vertex 55.799 -4.25 70
      vertex 56 -3.5 71
      vertex 56 -3.5 70
    endloop
  endfacet
  facet normal -0.965926 0.258819 0
    outer loop
      vertex 56 -3.5 71
      vertex 55.799 -4.25 70
      vertex 55.799 -4.25 71
    endloop
  endfacet
  facet normal -0.258818 -0.965926 0
    outer loop
      vertex 54.5 -2 70
      vertex 55.25 -2.20096 71
      vertex 54.5 -2 71
    endloop
  endfacet
  facet normal -0.258818 -0.965926 -0
    outer loop
      vertex 55.25 -2.20096 71
      vertex 54.5 -2 70
      vertex 55.25 -2.20096 70
    endloop
  endfacet
  facet normal 0.707107 0.707107 0
    outer loop
      vertex 53.75 -4.79904 71
      vertex 53.201 -4.25 70
      vertex 53.201 -4.25 71
    endloop
  endfacet
  facet normal 0.707107 0.707107 0
    outer loop
      vertex 53.201 -4.25 70
      vertex 53.75 -4.79904 71
      vertex 53.75 -4.79904 70
    endloop
  endfacet
  facet normal -0.258819 0.965926 0
    outer loop
      vertex 55.25 -4.79904 70
      vertex 54.5 -5 71
      vertex 55.25 -4.79904 71
    endloop
  endfacet
  facet normal -0.258819 0.965926 0
    outer loop
      vertex 54.5 -5 71
      vertex 55.25 -4.79904 70
      vertex 54.5 -5 70
    endloop
  endfacet
  facet normal -0.707107 0.707107 0
    outer loop
      vertex 55.25 -4.79904 70
      vertex 55.799 -4.25 71
      vertex 55.799 -4.25 70
    endloop
  endfacet
  facet normal -0.707107 0.707107 0
    outer loop
      vertex 55.799 -4.25 71
      vertex 55.25 -4.79904 70
      vertex 55.25 -4.79904 71
    endloop
  endfacet
  facet normal 0.965926 -0.258819 0
    outer loop
      vertex 53 -3.5 71
      vertex 53.201 -2.75 70
      vertex 53.201 -2.75 71
    endloop
  endfacet
  facet normal 0.965926 -0.258819 0
    outer loop
      vertex 53.201 -2.75 70
      vertex 53 -3.5 71
      vertex 53 -3.5 70
    endloop
  endfacet
  facet normal 0.258819 0.965926 -0
    outer loop
      vertex 54.5 -5 70
      vertex 53.75 -4.79904 71
      vertex 54.5 -5 71
    endloop
  endfacet
  facet normal 0.258819 0.965926 0
    outer loop
      vertex 53.75 -4.79904 71
      vertex 54.5 -5 70
      vertex 53.75 -4.79904 70
    endloop
  endfacet
  facet normal -0.965927 -0.258815 0
    outer loop
      vertex 109 -3.5 70
      vertex 108.799 -2.75 71
      vertex 108.799 -2.75 70
    endloop
  endfacet
  facet normal -0.965927 -0.258815 0
    outer loop
      vertex 108.799 -2.75 71
      vertex 109 -3.5 70
      vertex 109 -3.5 71
    endloop
  endfacet
  facet normal 0.258818 -0.965926 0
    outer loop
      vertex 106.75 -2.20096 70
      vertex 107.5 -2 71
      vertex 106.75 -2.20096 71
    endloop
  endfacet
  facet normal 0.258818 -0.965926 0
    outer loop
      vertex 107.5 -2 71
      vertex 106.75 -2.20096 70
      vertex 107.5 -2 70
    endloop
  endfacet
  facet normal -0.707105 -0.707109 0
    outer loop
      vertex 108.25 -2.20096 70
      vertex 108.799 -2.75 71
      vertex 108.25 -2.20096 71
    endloop
  endfacet
  facet normal -0.707105 -0.707109 -0
    outer loop
      vertex 108.799 -2.75 71
      vertex 108.25 -2.20096 70
      vertex 108.799 -2.75 70
    endloop
  endfacet
  facet normal 0.965927 0.258815 0
    outer loop
      vertex 106.201 -4.25 71
      vertex 106 -3.5 70
      vertex 106 -3.5 71
    endloop
  endfacet
  facet normal 0.965927 0.258815 0
    outer loop
      vertex 106 -3.5 70
      vertex 106.201 -4.25 71
      vertex 106.201 -4.25 70
    endloop
  endfacet
  facet normal 0.707105 -0.707109 0
    outer loop
      vertex 106.201 -2.75 70
      vertex 106.75 -2.20096 71
      vertex 106.201 -2.75 71
    endloop
  endfacet
  facet normal 0.707105 -0.707109 0
    outer loop
      vertex 106.75 -2.20096 71
      vertex 106.201 -2.75 70
      vertex 106.75 -2.20096 70
    endloop
  endfacet
  facet normal -0.965927 0.258815 0
    outer loop
      vertex 108.799 -4.25 70
      vertex 109 -3.5 71
      vertex 109 -3.5 70
    endloop
  endfacet
  facet normal -0.965927 0.258815 0
    outer loop
      vertex 109 -3.5 71
      vertex 108.799 -4.25 70
      vertex 108.799 -4.25 71
    endloop
  endfacet
  facet normal -0.258818 -0.965926 0
    outer loop
      vertex 107.5 -2 70
      vertex 108.25 -2.20096 71
      vertex 107.5 -2 71
    endloop
  endfacet
  facet normal -0.258818 -0.965926 -0
    outer loop
      vertex 108.25 -2.20096 71
      vertex 107.5 -2 70
      vertex 108.25 -2.20096 70
    endloop
  endfacet
  facet normal 0.707104 0.707109 -0
    outer loop
      vertex 106.75 -4.79904 70
      vertex 106.201 -4.25 71
      vertex 106.75 -4.79904 71
    endloop
  endfacet
  facet normal 0.707104 0.707109 0
    outer loop
      vertex 106.201 -4.25 71
      vertex 106.75 -4.79904 70
      vertex 106.201 -4.25 70
    endloop
  endfacet
  facet normal -0.258819 0.965926 0
    outer loop
      vertex 108.25 -4.79904 70
      vertex 107.5 -5 71
      vertex 108.25 -4.79904 71
    endloop
  endfacet
  facet normal -0.258819 0.965926 0
    outer loop
      vertex 107.5 -5 71
      vertex 108.25 -4.79904 70
      vertex 107.5 -5 70
    endloop
  endfacet
  facet normal -0.707104 0.707109 0
    outer loop
      vertex 108.799 -4.25 70
      vertex 108.25 -4.79904 71
      vertex 108.799 -4.25 71
    endloop
  endfacet
  facet normal -0.707104 0.707109 0
    outer loop
      vertex 108.25 -4.79904 71
      vertex 108.799 -4.25 70
      vertex 108.25 -4.79904 70
    endloop
  endfacet
  facet normal 0.965927 -0.258815 0
    outer loop
      vertex 106 -3.5 71
      vertex 106.201 -2.75 70
      vertex 106.201 -2.75 71
    endloop
  endfacet
  facet normal 0.965927 -0.258815 0
    outer loop
      vertex 106.201 -2.75 70
      vertex 106 -3.5 71
      vertex 106 -3.5 70
    endloop
  endfacet
  facet normal 0.258819 0.965926 -0
    outer loop
      vertex 107.5 -5 70
      vertex 106.75 -4.79904 71
      vertex 107.5 -5 71
    endloop
  endfacet
  facet normal 0.258819 0.965926 0
    outer loop
      vertex 106.75 -4.79904 71
      vertex 107.5 -5 70
      vertex 106.75 -4.79904 70
    endloop
  endfacet
  facet normal -0.965926 -0.258819 0
    outer loop
      vertex 3 88.5 70
      vertex 2.79904 89.25 71
      vertex 2.79904 89.25 70
    endloop
  endfacet
  facet normal -0.965926 -0.258819 0
    outer loop
      vertex 2.79904 89.25 71
      vertex 3 88.5 70
      vertex 3 88.5 71
    endloop
  endfacet
  facet normal 0.258815 -0.965927 0
    outer loop
      vertex 0.75 89.799 70
      vertex 1.5 90 71
      vertex 0.75 89.799 71
    endloop
  endfacet
  facet normal 0.258815 -0.965927 0
    outer loop
      vertex 1.5 90 71
      vertex 0.75 89.799 70
      vertex 1.5 90 70
    endloop
  endfacet
  facet normal 0.965926 0.258818 0
    outer loop
      vertex 0.200961 87.75 71
      vertex 0 88.5 70
      vertex 0 88.5 71
    endloop
  endfacet
  facet normal 0.965926 0.258818 0
    outer loop
      vertex 0 88.5 70
      vertex 0.200961 87.75 71
      vertex 0.200961 87.75 70
    endloop
  endfacet
  facet normal 0.707109 -0.707105 0
    outer loop
      vertex 0.200961 89.25 71
      vertex 0.75 89.799 70
      vertex 0.75 89.799 71
    endloop
  endfacet
  facet normal 0.707109 -0.707105 0
    outer loop
      vertex 0.75 89.799 70
      vertex 0.200961 89.25 71
      vertex 0.200961 89.25 70
    endloop
  endfacet
  facet normal -0.965926 0.258819 0
    outer loop
      vertex 2.79904 87.75 70
      vertex 3 88.5 71
      vertex 3 88.5 70
    endloop
  endfacet
  facet normal -0.965926 0.258819 0
    outer loop
      vertex 3 88.5 71
      vertex 2.79904 87.75 70
      vertex 2.79904 87.75 71
    endloop
  endfacet
  facet normal -0.707109 0.707104 0
    outer loop
      vertex 2.25 87.201 70
      vertex 2.79904 87.75 71
      vertex 2.79904 87.75 70
    endloop
  endfacet
  facet normal -0.707109 0.707104 0
    outer loop
      vertex 2.79904 87.75 71
      vertex 2.25 87.201 70
      vertex 2.25 87.201 71
    endloop
  endfacet
  facet normal -0.258814 0.965927 0
    outer loop
      vertex 2.25 87.201 70
      vertex 1.5 87 71
      vertex 2.25 87.201 71
    endloop
  endfacet
  facet normal -0.258814 0.965927 0
    outer loop
      vertex 1.5 87 71
      vertex 2.25 87.201 70
      vertex 1.5 87 70
    endloop
  endfacet
  facet normal 0.707109 0.707104 0
    outer loop
      vertex 0.749999 87.201 71
      vertex 0.200961 87.75 70
      vertex 0.200961 87.75 71
    endloop
  endfacet
  facet normal 0.707109 0.707104 0
    outer loop
      vertex 0.200961 87.75 70
      vertex 0.749999 87.201 71
      vertex 0.749999 87.201 70
    endloop
  endfacet
  facet normal -0.258815 -0.965927 0
    outer loop
      vertex 1.5 90 70
      vertex 2.25 89.799 71
      vertex 1.5 90 71
    endloop
  endfacet
  facet normal -0.258815 -0.965927 -0
    outer loop
      vertex 2.25 89.799 71
      vertex 1.5 90 70
      vertex 2.25 89.799 70
    endloop
  endfacet
  facet normal -0.707109 -0.707104 0
    outer loop
      vertex 2.79904 89.25 70
      vertex 2.25 89.799 71
      vertex 2.25 89.799 70
    endloop
  endfacet
  facet normal -0.707109 -0.707104 0
    outer loop
      vertex 2.25 89.799 71
      vertex 2.79904 89.25 70
      vertex 2.79904 89.25 71
    endloop
  endfacet
  facet normal 0.258815 0.965927 -0
    outer loop
      vertex 1.5 87 70
      vertex 0.749999 87.201 71
      vertex 1.5 87 71
    endloop
  endfacet
  facet normal 0.258815 0.965927 0
    outer loop
      vertex 0.749999 87.201 71
      vertex 1.5 87 70
      vertex 0.749999 87.201 70
    endloop
  endfacet
  facet normal 0.965926 -0.258818 0
    outer loop
      vertex 0 88.5 71
      vertex 0.200961 89.25 70
      vertex 0.200961 89.25 71
    endloop
  endfacet
  facet normal 0.965926 -0.258818 0
    outer loop
      vertex 0.200961 89.25 70
      vertex 0 88.5 71
      vertex 0 88.5 70
    endloop
  endfacet
  facet normal -0.965926 -0.258819 0
    outer loop
      vertex 56 88.5 70
      vertex 55.799 89.25 71
      vertex 55.799 89.25 70
    endloop
  endfacet
  facet normal -0.965926 -0.258819 0
    outer loop
      vertex 55.799 89.25 71
      vertex 56 88.5 70
      vertex 56 88.5 71
    endloop
  endfacet
  facet normal 0.258815 -0.965927 0
    outer loop
      vertex 53.75 89.799 70
      vertex 54.5 90 71
      vertex 53.75 89.799 71
    endloop
  endfacet
  facet normal 0.258815 -0.965927 0
    outer loop
      vertex 54.5 90 71
      vertex 53.75 89.799 70
      vertex 54.5 90 70
    endloop
  endfacet
  facet normal 0.965926 0.258819 0
    outer loop
      vertex 53.201 87.75 71
      vertex 53 88.5 70
      vertex 53 88.5 71
    endloop
  endfacet
  facet normal 0.965926 0.258819 0
    outer loop
      vertex 53 88.5 70
      vertex 53.201 87.75 71
      vertex 53.201 87.75 70
    endloop
  endfacet
  facet normal 0.707109 -0.707104 0
    outer loop
      vertex 53.201 89.25 71
      vertex 53.75 89.799 70
      vertex 53.75 89.799 71
    endloop
  endfacet
  facet normal 0.707109 -0.707104 0
    outer loop
      vertex 53.75 89.799 70
      vertex 53.201 89.25 71
      vertex 53.201 89.25 70
    endloop
  endfacet
  facet normal -0.965926 0.258819 0
    outer loop
      vertex 55.799 87.75 70
      vertex 56 88.5 71
      vertex 56 88.5 70
    endloop
  endfacet
  facet normal -0.965926 0.258819 0
    outer loop
      vertex 56 88.5 71
      vertex 55.799 87.75 70
      vertex 55.799 87.75 71
    endloop
  endfacet
  facet normal -0.707109 0.707104 0
    outer loop
      vertex 55.25 87.201 70
      vertex 55.799 87.75 71
      vertex 55.799 87.75 70
    endloop
  endfacet
  facet normal -0.707109 0.707104 0
    outer loop
      vertex 55.799 87.75 71
      vertex 55.25 87.201 70
      vertex 55.25 87.201 71
    endloop
  endfacet
  facet normal -0.258815 0.965927 0
    outer loop
      vertex 55.25 87.201 70
      vertex 54.5 87 71
      vertex 55.25 87.201 71
    endloop
  endfacet
  facet normal -0.258815 0.965927 0
    outer loop
      vertex 54.5 87 71
      vertex 55.25 87.201 70
      vertex 54.5 87 70
    endloop
  endfacet
  facet normal 0.707109 0.707104 0
    outer loop
      vertex 53.75 87.201 71
      vertex 53.201 87.75 70
      vertex 53.201 87.75 71
    endloop
  endfacet
  facet normal 0.707109 0.707104 0
    outer loop
      vertex 53.201 87.75 70
      vertex 53.75 87.201 71
      vertex 53.75 87.201 70
    endloop
  endfacet
  facet normal -0.258815 -0.965927 0
    outer loop
      vertex 54.5 90 70
      vertex 55.25 89.799 71
      vertex 54.5 90 71
    endloop
  endfacet
  facet normal -0.258815 -0.965927 -0
    outer loop
      vertex 55.25 89.799 71
      vertex 54.5 90 70
      vertex 55.25 89.799 70
    endloop
  endfacet
  facet normal -0.707109 -0.707104 0
    outer loop
      vertex 55.799 89.25 70
      vertex 55.25 89.799 71
      vertex 55.25 89.799 70
    endloop
  endfacet
  facet normal -0.707109 -0.707104 0
    outer loop
      vertex 55.25 89.799 71
      vertex 55.799 89.25 70
      vertex 55.799 89.25 71
    endloop
  endfacet
  facet normal 0.258815 0.965927 -0
    outer loop
      vertex 54.5 87 70
      vertex 53.75 87.201 71
      vertex 54.5 87 71
    endloop
  endfacet
  facet normal 0.258815 0.965927 0
    outer loop
      vertex 53.75 87.201 71
      vertex 54.5 87 70
      vertex 53.75 87.201 70
    endloop
  endfacet
  facet normal 0.965926 -0.258819 0
    outer loop
      vertex 53 88.5 71
      vertex 53.201 89.25 70
      vertex 53.201 89.25 71
    endloop
  endfacet
  facet normal 0.965926 -0.258819 0
    outer loop
      vertex 53.201 89.25 70
      vertex 53 88.5 71
      vertex 53 88.5 70
    endloop
  endfacet
  facet normal -0.965927 -0.258815 0
    outer loop
      vertex 109 88.5 70
      vertex 108.799 89.25 71
      vertex 108.799 89.25 70
    endloop
  endfacet
  facet normal -0.965927 -0.258815 0
    outer loop
      vertex 108.799 89.25 71
      vertex 109 88.5 70
      vertex 109 88.5 71
    endloop
  endfacet
  facet normal 0.258815 -0.965927 0
    outer loop
      vertex 106.75 89.799 70
      vertex 107.5 90 71
      vertex 106.75 89.799 71
    endloop
  endfacet
  facet normal 0.258815 -0.965927 0
    outer loop
      vertex 107.5 90 71
      vertex 106.75 89.799 70
      vertex 107.5 90 70
    endloop
  endfacet
  facet normal 0.965927 0.258815 0
    outer loop
      vertex 106.201 87.75 71
      vertex 106 88.5 70
      vertex 106 88.5 71
    endloop
  endfacet
  facet normal 0.965927 0.258815 0
    outer loop
      vertex 106 88.5 70
      vertex 106.201 87.75 71
      vertex 106.201 87.75 70
    endloop
  endfacet
  facet normal 0.707107 -0.707107 0
    outer loop
      vertex 106.201 89.25 71
      vertex 106.75 89.799 70
      vertex 106.75 89.799 71
    endloop
  endfacet
  facet normal 0.707107 -0.707107 0
    outer loop
      vertex 106.75 89.799 70
      vertex 106.201 89.25 71
      vertex 106.201 89.25 70
    endloop
  endfacet
  facet normal -0.965927 0.258815 0
    outer loop
      vertex 108.799 87.75 70
      vertex 109 88.5 71
      vertex 109 88.5 70
    endloop
  endfacet
  facet normal -0.965927 0.258815 0
    outer loop
      vertex 109 88.5 71
      vertex 108.799 87.75 70
      vertex 108.799 87.75 71
    endloop
  endfacet
  facet normal -0.707107 0.707107 0
    outer loop
      vertex 108.25 87.201 70
      vertex 108.799 87.75 71
      vertex 108.799 87.75 70
    endloop
  endfacet
  facet normal -0.707107 0.707107 0
    outer loop
      vertex 108.799 87.75 71
      vertex 108.25 87.201 70
      vertex 108.25 87.201 71
    endloop
  endfacet
  facet normal -0.258815 0.965927 0
    outer loop
      vertex 108.25 87.201 70
      vertex 107.5 87 71
      vertex 108.25 87.201 71
    endloop
  endfacet
  facet normal -0.258815 0.965927 0
    outer loop
      vertex 107.5 87 71
      vertex 108.25 87.201 70
      vertex 107.5 87 70
    endloop
  endfacet
  facet normal 0.707107 0.707107 0
    outer loop
      vertex 106.75 87.201 71
      vertex 106.201 87.75 70
      vertex 106.201 87.75 71
    endloop
  endfacet
  facet normal 0.707107 0.707107 0
    outer loop
      vertex 106.201 87.75 70
      vertex 106.75 87.201 71
      vertex 106.75 87.201 70
    endloop
  endfacet
  facet normal -0.258815 -0.965927 0
    outer loop
      vertex 107.5 90 70
      vertex 108.25 89.799 71
      vertex 107.5 90 71
    endloop
  endfacet
  facet normal -0.258815 -0.965927 -0
    outer loop
      vertex 108.25 89.799 71
      vertex 107.5 90 70
      vertex 108.25 89.799 70
    endloop
  endfacet
  facet normal -0.707107 -0.707107 0
    outer loop
      vertex 108.799 89.25 70
      vertex 108.25 89.799 71
      vertex 108.25 89.799 70
    endloop
  endfacet
  facet normal -0.707107 -0.707107 0
    outer loop
      vertex 108.25 89.799 71
      vertex 108.799 89.25 70
      vertex 108.799 89.25 71
    endloop
  endfacet
  facet normal 0.258815 0.965927 -0
    outer loop
      vertex 107.5 87 70
      vertex 106.75 87.201 71
      vertex 107.5 87 71
    endloop
  endfacet
  facet normal 0.258815 0.965927 0
    outer loop
      vertex 106.75 87.201 71
      vertex 107.5 87 70
      vertex 106.75 87.201 70
    endloop
  endfacet
  facet normal 0.965927 -0.258815 0
    outer loop
      vertex 106 88.5 71
      vertex 106.201 89.25 70
      vertex 106.201 89.25 71
    endloop
  endfacet
  facet normal 0.965927 -0.258815 0
    outer loop
      vertex 106.201 89.25 70
      vertex 106 88.5 71
      vertex 106 88.5 70
    endloop
  endfacet
endsolid OpenSCAD_Model
